<?xml version="1.0" encoding="UTF-8" standalone="no"?>
<svg
   width="684.96661"
   height="237.05969"
   viewBox="0 0 52.81257 18.277871"
   version="1.1"
   id="svg22"
   sodipodi:docname="gemeente-rotterdam-r.svg"
   inkscape:version="1.1.1 (3bf5ae0d25, 2021-09-20)"
   xmlns:inkscape="http://www.inkscape.org/namespaces/inkscape"
   xmlns:sodipodi="http://sodipodi.sourceforge.net/DTD/sodipodi-0.dtd"
   xmlns="http://www.w3.org/2000/svg"
   xmlns:svg="http://www.w3.org/2000/svg">
  <defs
     id="defs26" />
  <sodipodi:namedview
     id="namedview24"
     pagecolor="#ffffff"
     bordercolor="#666666"
     borderopacity="1.0"
     inkscape:pageshadow="2"
     inkscape:pageopacity="0.0"
     inkscape:pagecheckerboard="0"
     showgrid="false"
     inkscape:zoom="0.3492"
     inkscape:cx="1212.7721"
     inkscape:cy="118.84307"
     inkscape:window-width="2560"
     inkscape:window-height="1376"
     inkscape:window-x="0"
     inkscape:window-y="27"
     inkscape:window-maximized="1"
     inkscape:current-layer="g20" />
  <g
     fill-rule="evenodd"
     clip-rule="evenodd"
     id="g20"
     transform="translate(-2.8344083,-87.23966)">
    <path
       d="m 15.427,91.855 c -2.176,-0.001 -3.488,-0.734 -2.515,-2.829 0.06,-0.126 0.229,-0.438 -0.096,-0.338 -1.362,0.413 -5.712,2.612 0.215,4.827 -0.57,0.119 -1.256,0.192 -2.151,0.191 C 9.521,93.705 7.613,93.282 7.316,93.203 6.82,93.071 6.815,93.53 7.258,94.017 c 1.244,1.37 5.356,2.674 8.53,2.345 1.754,-0.181 3.768,-1.491 3.768,-1.491 -0.485,-0.355 -1.454,0.063 -1.853,0.177 -1.403,0.402 -2.401,0.028 -2.723,-0.448 0.284,-0.102 0.552,-0.201 0.809,-0.31 6.854,-2.867 8.994,-3.208 15.593,-1.154 -4.902,-0.725 -9.887,1.692 -12.156,3.265 -0.858,0.594 -0.823,1.148 -0.057,0.824 0.746,-0.316 1.129,-0.588 1.721,-0.625 0.751,-0.047 1.678,0.447 2.158,0.678 2.255,1.078 5.008,-1.667 6.06,-2.355 0.883,-0.578 1.967,-1.186 2.953,-0.517 0,0 1.316,-0.301 2.348,-0.59 -12.313,-6.559 -15.65,-1.957 -18.982,-1.961 z m 39.404,3.247 c -1.156,1.216 -2.996,2.347 -5.504,2.416 -2.951,0.082 -4.516,-0.078 -8.164,-1.699 0.711,-0.994 0.996,-1.989 1.038,-3.119 0.061,-1.522 -0.616,-2.84 -1.989,-3.684 -1.481,-0.912 -2.373,-1.351 -2.373,-1.351 0.702,0.394 1.181,1.438 1.366,2.768 0.253,1.799 -0.207,4.026 -2.321,5.402 l 2.759,4.845 c -2.058,-0.213 -3.477,0.885 -3.477,0.885 l 2.65,2.258 c 0,0 2.246,-1.432 5.797,-0.707 l -4.305,-5.957 c 3.246,1.779 8.331,2.857 8.331,2.857 0,0 -1.876,0.037 -3.416,-0.391 -0.461,-0.129 -0.886,0.004 -0.247,0.34 0.16,0.084 2.088,1.068 3.938,1.266 3.316,0.354 4.568,-0.949 4.84,-1.367 0.441,-0.674 -0.56,-0.301 -2.275,-0.291 -1.713,0.014 -3.423,-0.543 -4.172,-0.943 2.865,-0.033 8.152,-0.562 8.335,-2.271 0.049,-0.44 -0.267,-1.054 -0.811,-1.257 z m -20.955,1.818 -1.815,0.436 v 5.189 c 0,0 -1.35,1.033 -2.953,0.627 l 2.651,2.258 c 1.951,0.414 3.156,-0.775 3.156,-0.775 v -5.631 z"
       fill="#3a357f"
       id="path4" />
    <path
       d="m 34.409,93.817 c -1.032,0.289 -2.348,0.59 -2.348,0.59 -0.986,-0.669 -2.07,-0.061 -2.953,0.517 v 8.248 c 1.604,0.406 2.953,-0.627 2.953,-0.627 v -5.189 l 1.815,-0.436 1.039,2.104 1.251,2.541 c 0,0 1.419,-1.098 3.477,-0.885 l -2.759,-4.845 c 2.114,-1.376 2.574,-3.603 2.321,-5.402 -0.185,-1.33 -0.664,-2.374 -1.366,-2.768 -0.368,-0.205 -1.125,-0.678 -2.89,-0.255 l -5.841,1.4 c 1.229,0.492 2.953,1.745 2.953,1.745 l 2.597,-0.614 c 0.146,-0.035 1.096,-0.238 1.43,0.6 0.079,0.204 0.133,0.425 0.162,0.653 0.07,0.532 0.002,1.099 -0.189,1.545 a 1.649,1.649 0 0 1 -0.404,0.585 c -0.083,0.07 -0.172,0.128 -0.269,0.171 -0.22,0.094 -0.576,0.209 -0.979,0.322 z"
       fill="#71ae61"
       id="path6" />
    <path
       d="m 32.061,90.554 c 0,0 -1.725,-1.253 -2.953,-1.745 -0.636,-0.255 -0.969,-0.332 -1.601,-0.396 -1.067,-0.108 -1.921,0.905 -0.891,1.001 2.088,0.195 5.544,1.992 9.04,3.909 0.167,-0.147 0.303,-0.349 0.404,-0.585 a 80.208,80.208 0 0 1 -1.879,-1.019 c 0,0 1.296,-0.333 2.068,-0.526 A 2.764,2.764 0 0 0 36.087,90.54 c -0.334,-0.838 -1.283,-0.635 -1.43,-0.6 z M 4.229,90.437 c -1.013,-0.609 -1.77,0.18 -1.197,0.789 0.488,0.517 0.625,0.188 1.853,0.786 0.502,0.245 0.888,0.762 0.598,0.063 C 5.142,91.259 4.828,90.798 4.229,90.437 Z"
       fill="#3a357f"
       id="path8" />
    <path
       d="m 4.196,90.491 c -0.551,-0.331 -1.007,-0.227 -1.199,0.01 -0.159,0.198 -0.128,0.459 0.081,0.682 0.246,0.259 0.393,0.293 0.663,0.354 0.249,0.056 0.588,0.133 1.171,0.417 0.17,0.083 0.323,0.194 0.445,0.282 0.052,0.037 0.111,0.08 0.153,0.105 A 1.905,1.905 0 0 0 5.423,92.1 C 5.068,91.245 4.747,90.823 4.196,90.491 Z m 29.68,6.429 -1.815,0.436 v 5.189 c 0,0 -1.278,0.979 -2.824,0.656 l 2.549,2.168 c 1.759,0.365 2.908,-0.604 3.063,-0.744 v -5.729 z m 20.968,-1.742 a 7.893,7.893 0 0 1 -5.516,2.404 c -2.912,0.08 -4.467,-0.053 -8.191,-1.706 l -0.072,-0.031 0.045,-0.063 c 0.664,-0.93 0.982,-1.881 1.027,-3.084 0.062,-1.526 -0.636,-2.814 -1.959,-3.628 a 38.447,38.447 0 0 0 -2.029,-1.176 c 0.535,0.495 0.9,1.413 1.056,2.539 0.253,1.799 -0.207,4.026 -2.321,5.402 l 2.759,4.845 c -1.831,-0.189 -3.154,0.658 -3.423,0.846 l 2.603,2.219 c 0.31,-0.18 2.45,-1.32 5.649,-0.717 l -4.215,-5.832 -0.004,-0.094 h 0.088 c 3.2,1.756 8.264,2.842 8.312,2.852 l 0.073,0.076 -0.084,0.051 c -0.021,0.002 -1.905,0.031 -3.436,-0.395 -0.289,-0.082 -0.479,-0.035 -0.491,-0.006 0,0.002 0.003,0.076 0.292,0.229 0.081,0.043 2.03,1.059 3.915,1.258 3.551,0.379 4.667,-1.162 4.782,-1.338 0.104,-0.16 0.097,-0.221 0.085,-0.242 -0.057,-0.096 -0.463,-0.062 -0.93,-0.023 -0.375,0.031 -0.843,0.07 -1.377,0.074 -1.76,0.014 -3.478,-0.562 -4.204,-0.951 l -0.219,-0.117 0.249,-0.002 c 3.233,-0.039 8.104,-0.658 8.272,-2.215 0.043,-0.402 -0.248,-0.969 -0.736,-1.175 z M 29.075,94.87 29.172,94.807 v 0.077 c 0.874,-0.564 1.926,-1.129 2.89,-0.476 0,0 1.242,-0.284 2.258,-0.565 -4.078,-2.165 -7.514,-3.301 -10.503,-3.467 -2.56,-0.143 -4.349,0.461 -5.786,0.946 -0.953,0.321 -1.775,0.599 -2.604,0.599 C 14.02,91.919 13.111,91.613 12.729,91.012 12.419,90.525 12.462,89.848 12.856,89 l 0.015,-0.03 c 0.078,-0.165 0.083,-0.219 0.075,-0.234 0,0 -0.022,-0.014 -0.109,0.013 -0.889,0.271 -2.737,1.188 -2.772,2.296 -0.027,0.848 0.98,1.659 2.991,2.411 l 0.206,0.077 -0.215,0.045 c -0.625,0.13 -1.333,0.193 -2.164,0.193 C 9.505,93.77 7.596,93.344 7.302,93.266 7.219,93.244 7.073,93.22 7.022,93.305 c -0.065,0.106 0.012,0.371 0.286,0.671 1.202,1.325 5.251,2.659 8.475,2.325 1.508,-0.156 3.234,-1.167 3.647,-1.423 -0.4,-0.194 -1.066,0.023 -1.477,0.161 -0.09,0.029 -0.167,0.056 -0.23,0.073 -1.421,0.408 -2.446,0.04 -2.793,-0.473 l -0.046,-0.069 0.077,-0.028 c 0.323,-0.114 0.578,-0.211 0.805,-0.305 3.418,-1.431 5.691,-2.242 7.911,-2.43 2.09,-0.176 4.185,0.169 7.729,1.272 l 0.078,0.094 -0.111,0.027 c -2.165,-0.319 -4.531,-0.062 -7.035,0.769 -2.574,0.854 -4.408,2.023 -5.076,2.485 -0.501,0.349 -0.654,0.655 -0.601,0.755 0.036,0.066 0.201,0.078 0.483,-0.041 0.206,-0.088 0.386,-0.172 0.544,-0.248 0.422,-0.197 0.756,-0.354 1.196,-0.382 0.698,-0.044 1.54,0.368 2.044,0.612 l 0.146,0.07 c 1.822,0.873 3.994,-0.816 5.29,-1.823 0.281,-0.216 0.52,-0.403 0.711,-0.527 z m 5.077,-3.094 -0.14,-0.078 0.153,-0.04 2.071,-0.526 h 0.002 a 2.769,2.769 0 0 0 -0.151,-0.591 c -0.334,-0.838 -1.283,-0.635 -1.43,-0.6 l -2.597,0.614 c 0,0 -1.636,-1.186 -2.856,-1.702 l -0.081,0.02 -0.021,0.004 -0.018,-0.008 c -0.618,-0.246 -0.943,-0.327 -1.584,-0.392 -0.542,-0.055 -1.03,0.191 -1.215,0.449 -0.038,0.056 -0.099,0.161 -0.056,0.252 0.041,0.092 0.18,0.154 0.391,0.174 2.143,0.2 5.653,2.043 9.064,3.915 l 0.021,0.009 c 0.133,-0.128 0.241,-0.293 0.329,-0.479 a 90.05,90.05 0 0 1 -1.882,-1.021 z"
       fill="#3a357f"
       id="path10" />
    <path
       d="m 36.884,95.834 c 2.114,-1.376 2.574,-3.603 2.321,-5.402 -0.156,-1.116 -0.517,-2.032 -1.045,-2.53 -0.226,-0.119 -0.347,-0.18 -0.352,-0.183 l -0.034,-0.02 c -0.365,-0.204 -1.122,-0.632 -2.811,-0.228 l -5.755,1.38 c 1.219,0.516 2.854,1.702 2.854,1.702 l 2.597,-0.614 c 0.146,-0.035 1.096,-0.238 1.43,0.6 0.07,0.181 0.12,0.388 0.151,0.591 0.02,-0.004 0.077,-0.02 0.077,-0.02 l 0.009,0.073 c 0.072,0.551 0,1.128 -0.196,1.584 l -0.025,0.063 -0.068,-0.036 c -0.088,0.183 -0.2,0.354 -0.332,0.481 l 0.064,0.033 -0.071,0.06 a 1.151,1.151 0 0 1 -0.284,0.182 c -0.265,0.114 -0.683,0.24 -0.985,0.326 l -0.024,0.007 -0.022,-0.011 c -0.021,-0.012 -0.041,-0.021 -0.06,-0.033 -1.018,0.282 -2.26,0.565 -2.26,0.565 -0.964,-0.653 -2.018,-0.09 -2.89,0.476 v 8.3 l 0.07,0.018 c 1.544,0.32 2.819,-0.656 2.819,-0.656 v -5.189 l 1.815,-0.436 0.974,1.977 0.097,0.055 1.271,2.572 0.002,0.002 c 0.273,-0.191 1.596,-1.035 3.423,-0.846 z"
       fill="#71ae61"
       id="path12" />
    <path
       d="M 36.06,92.739 36.003,92.71 c 0,0.002 -0.003,0.003 -0.003,0.005 a 1.52,1.52 0 0 1 -0.388,0.56 c -0.006,0.005 -0.014,0.008 -0.021,0.013 0.024,0.012 0.042,0.023 0.064,0.036 0.167,-0.147 0.303,-0.349 0.405,-0.585 z m 3.576,8.003 0.125,0.014 -0.061,-0.109 -2.732,-4.793 c 2.524,-1.681 2.452,-4.353 2.301,-5.429 -0.166,-1.183 -0.555,-2.094 -1.091,-2.583 -0.219,-0.116 -0.338,-0.176 -0.338,-0.176 0.702,0.394 1.181,1.438 1.366,2.768 0.253,1.799 -0.207,4.026 -2.321,5.402 l 2.759,4.845 c -2.058,-0.213 -3.477,0.885 -3.477,0.885 l 0.049,0.043 c 0.111,-0.084 1.488,-1.064 3.42,-0.867 z m -7.575,-3.387 v 5.189 c 0,0 -1.35,1.033 -2.953,0.627 l 0.1,0.086 c 1.565,0.332 2.879,-0.652 2.893,-0.664 l 0.024,-0.018 v -5.17 l 1.718,-0.412 1.072,2.174 v -0.145 l -1.039,-2.104 z m -0.038,-6.749 0.025,0.017 0.027,-0.007 2.596,-0.614 c 0.244,-0.058 1.059,-0.187 1.355,0.562 0.079,0.195 0.132,0.409 0.163,0.638 v 0.008 l 0.061,-0.016 a 2.764,2.764 0 0 0 -0.162,-0.653 c -0.334,-0.838 -1.283,-0.635 -1.43,-0.6 l -2.597,0.614 c 0,0 -1.725,-1.253 -2.953,-1.745 l -0.095,0.021 c 1.204,0.489 2.994,1.763 3.01,1.775 z m 0.038,3.801 c 0,0 1.316,-0.301 2.348,-0.59 l -0.083,-0.043 a 57.59,57.59 0 0 1 -2.257,0.565 c -0.991,-0.648 -2.044,-0.085 -2.961,0.51 v 0.075 c 0.883,-0.578 1.967,-1.186 2.953,-0.517 z"
       fill="#71ae61"
       id="path14" />
  </g>
</svg>
